<?xml version="1.0" standalone="no"?><!DOCTYPE svg PUBLIC "-//W3C//DTD SVG 1.1//EN" "http://www.w3.org/Graphics/SVG/1.1/DTD/svg11.dtd"><svg t="1665752818919" class="icon" viewBox="0 0 1024 1024" version="1.1" xmlns="http://www.w3.org/2000/svg" p-id="2695" xmlns:xlink="http://www.w3.org/1999/xlink" width="200" height="200"><path d="M380.20741833 656.60574935m-192.19751496 0a192.19751497 192.19751497 0 1 0 384.39502992 0 192.19751497 192.19751497 0 1 0-384.39502992 0Z" fill="#F4C222" p-id="2696"></path><path d="M338.10701027 875.3448259c-68.64196964 0-133.62303423-25.62633533-183.96047861-74.13332721-51.25267068-49.42221811-80.53991103-115.31850898-82.37036356-186.70615738-3.66090506-146.43620185 113.48805645-269.07652095 259.92425833-272.73742599 146.43620185-2.74567878 269.07652095 113.48805645 272.73742601 259.92425833 1.83045253 71.38764842-24.71110907 138.1991655-73.21810095 190.36706244-49.42221811 51.25267068-115.31850898 80.53991103-186.7061574 82.37036356-1.83045253 0.91522626-3.66090506 0.91522626-6.40658382 0.91522625z m0.91522625-496.96786013h-5.49135755c-127.21645037 2.74567878-227.89133916 108.91192514-225.14566038 236.12837554 2.74567878 127.21645037 108.91192514 228.80656541 236.1283755 225.14566039 127.21645037-2.74567878 227.89133916-108.91192514 225.14566041-236.12837553-3.66090506-124.47077158-106.16624637-225.14566037-230.63701798-225.1456604z" fill="#256782" p-id="2697"></path><path d="M341.76791532 768.26335328c-10.06748889 0-17.38929897-7.3218101-17.38929897-17.38929898v-15.55884645c0-10.06748889 7.3218101-18.30452524 17.38929897-18.30452522 10.06748889 0 17.38929897 7.3218101 17.38929896 17.38929896v15.55884646c0.91522626 9.15226261-7.3218101 17.38929897-17.38929896 18.30452523zM335.36133149 507.4238687c-10.06748889 0-17.38929897-7.3218101-17.38929897-17.38929897v-17.38929897c0-10.06748889 7.3218101-18.30452524 17.38929897-18.30452526 9.15226261 0 18.30452524 7.3218101 18.30452521 17.38929898v17.38929899c0 10.06748889-8.23703635 18.30452524-18.30452521 18.30452523 0.91522626 0 0 0 0 0z" fill="#256782" p-id="2698"></path><path d="M335.36133149 740.80656541c-41.18518177 0-68.64196964-25.62633533-76.879006-33.86337166-6.40658382-7.3218101-6.40658382-18.30452524 0-24.71110907 7.3218101-6.40658382 18.30452524-6.40658382 24.7111091 0 4.5761313 4.5761313 26.54156159 25.62633533 57.65925448 22.88065655 13.72839391-0.91522626 41.18518177-9.15226261 47.59176561-28.37201412 3.66090506-11.8979414-0.91522626-27.45678784-10.06748891-37.52427674-10.98271516-12.81316766-27.45678784-14.64362017-46.67653934-16.4740727-22.88065653-2.74567878-48.50699189-5.49135757-65.89629082-28.37201412-14.64362017-19.21975149-19.21975149-46.67653934-10.06748889-68.64196964 12.81316766-32.94814542 50.33744441-46.67653934 80.53991103-45.76131307 35.6938242 1.83045253 58.57448076 23.79588279 65.89629085 33.86337169 6.40658382 7.3218101 5.49135757 18.30452524-1.83045251 24.71110906-7.3218101 6.40658382-18.30452524 5.49135757-24.71110907-1.83045252-3.66090506-4.5761313-18.30452524-20.13497775-40.26995553-21.05020401-17.38929897-0.91522626-39.35472924 7.3218101-45.76131308 22.88065653-3.66090506 10.06748889-1.83045253 24.71110907 5.49135757 33.8633717 8.23703635 10.98271516 21.05020402 12.81316766 42.10040801 14.64362017 21.96543027 2.74567878 49.42221811 5.49135757 69.55719591 28.37201411 17.38929897 20.13497775 24.71110907 48.50699189 17.38929898 71.38764844-10.98271516 34.77859794-48.50699189 50.33744441-77.79423226 53.08312315-4.5761313 0.91522626-8.23703635 0.91522626-10.98271513 0.91522625zM933.91930666 853.37939562h-356.93824207c-10.06748889 0-17.38929897-8.23703635-17.38929901-17.38929899s8.23703635-17.38929897 17.38929901-17.38929896h356.93824207c10.06748889 0 17.38929897 8.23703635 17.38929896 17.38929896s-7.3218101 17.38929897-17.38929896 17.38929899zM933.91930666 751.78928057H649.28393923c-10.06748889 0-17.38929897-8.23703635-17.38929895-17.38929898 0-10.06748889 8.23703635-17.38929897 17.38929895-17.38929896h284.63536743c10.06748889 0 17.38929897 8.23703635 17.38929896 17.38929896 0.91522626 9.15226261-7.3218101 17.38929897-17.38929896 17.38929898zM933.91930666 650.1991655H667.58846451c-10.06748889 0-17.38929897-8.23703635-17.38929901-17.38929895 0-10.06748889 8.23703635-17.38929897 17.38929901-17.38929898h266.33084215c10.06748889 0 17.38929897 8.23703635 17.38929896 17.38929898 0.91522626 9.15226261-7.3218101 17.38929897-17.38929896 17.38929895zM933.91930666 548.60905046h-274.56787851c-10.06748889 0-17.38929897-8.23703635-17.38929899-17.38929897 0-10.06748889 8.23703635-17.38929897 17.38929899-17.38929896h274.56787851c10.06748889 0 17.38929897 8.23703635 17.38929896 17.38929896 0.91522626 9.15226261-7.3218101 17.38929897-17.38929896 17.38929897zM933.91930666 447.01893541h-323.99009665c-10.06748889 0-17.38929897-8.23703635-17.38929898-17.38929896 0-10.06748889 8.23703635-17.38929897 17.38929898-17.38929898h323.99009665c10.06748889 0 17.38929897 8.23703635 17.38929896 17.38929898 0.91522626 9.15226261-7.3218101 17.38929897-17.38929896 17.38929896zM933.91930666 345.42882036h-323.99009665c-10.06748889 0-17.38929897-8.23703635-17.38929898-17.38929896 0-10.06748889 8.23703635-17.38929897 17.38929898-17.38929897h323.99009665c10.06748889 0 17.38929897 8.23703635 17.38929896 17.38929897 0.91522626 9.15226261-7.3218101 17.38929897-17.38929896 17.38929896z" fill="#256782" p-id="2699"></path><path d="M511.08477374 285.93911335H136.75723269c-10.06748889 0-17.38929897-8.23703635-17.38929896-17.38929898 0-10.06748889 8.23703635-17.38929897 17.38929896-17.38929897h374.32754105c10.06748889 0 17.38929897 8.23703635 17.38929896 17.38929897 0 9.15226261-7.3218101 17.38929897-17.38929896 17.38929898z" fill="#256782" p-id="2700"></path><path d="M511.08477374 183.43377203H136.75723269c-10.06748889 0-17.38929897-8.23703635-17.38929896-17.38929897s8.23703635-17.38929897 17.38929896-17.38929896h374.32754105c10.06748889 0 17.38929897 8.23703635 17.38929896 17.38929896s-7.3218101 17.38929897-17.38929896 17.38929897z" fill="#256782" p-id="2701"></path></svg>